<svg width="403" height="206" viewBox="0 0 403 206" fill="none" xmlns="http://www.w3.org/2000/svg">
<rect width="403" height="206" rx="14" fill="#F8F9FE"/>
<path d="M185.545 158.581C178.225 138.486 161.869 151.177 154 160.055V181H370V113.209C367.246 111.999 361.195 112.5 359.307 121.216C352.891 146.304 340.059 145.236 335.771 130.266C332.23 100.001 336.951 72.1568 325.148 69.7356C310.984 66.1037 314.525 49.1551 313.344 35.8384C309.803 16.4686 292.098 20.1004 292.098 39.4702C292.098 58.84 292.098 78.2099 282.656 83.0523C262.59 92.7372 275.185 138.116 265.743 144.169C244.497 155.064 252.417 113.209 240.614 113.209C231.171 113.209 228.361 104.843 228.361 100.001C224.82 60.0507 205.934 96.3691 205.934 132.687C205.934 169.006 194.099 182.068 185.545 158.581Z" fill="url(#paint0_linear_1_705)"/>
<rect x="39" y="35" width="109" height="36" rx="18" fill="#53BD95"/>
<path d="M62.448 47.256V54.508L57.646 47.256H56.05V57H57.646V49.734L62.448 57H64.044V47.256H62.448ZM69.3878 50.504C70.5778 50.504 71.5158 51.26 71.5438 52.45H67.2738C67.4418 51.232 68.3098 50.504 69.3878 50.504ZM72.9998 54.704H71.2778C70.9838 55.306 70.4378 55.782 69.4578 55.782C68.2818 55.782 67.3718 55.012 67.2598 53.738H73.1538C73.1958 53.472 73.2098 53.22 73.2098 52.954C73.2098 50.686 71.6558 49.16 69.4578 49.16C67.1758 49.16 65.6078 50.714 65.6078 53.136C65.6078 55.558 67.2458 57.126 69.4578 57.126C71.3478 57.126 72.5658 56.048 72.9998 54.704ZM76.2785 57H77.9585L79.5125 51.302L81.0665 57H82.7465L85.1405 49.286H83.5725L81.9765 55.46L80.4085 49.286H78.7425L77.1045 55.488L75.4945 49.286H73.8705L76.2785 57ZM89.9699 47.27V57H94.8559V55.712H91.5659V47.27H89.9699ZM99.4386 50.504C100.629 50.504 101.567 51.26 101.595 52.45H97.3246C97.4926 51.232 98.3606 50.504 99.4386 50.504ZM103.051 54.704H101.329C101.035 55.306 100.489 55.782 99.5086 55.782C98.3326 55.782 97.4226 55.012 97.3106 53.738H103.205C103.247 53.472 103.261 53.22 103.261 52.954C103.261 50.686 101.707 49.16 99.5086 49.16C97.2266 49.16 95.6586 50.714 95.6586 53.136C95.6586 55.558 97.2966 57.126 99.5086 57.126C101.399 57.126 102.617 56.048 103.051 54.704ZM104.299 53.108C104.299 55.488 105.909 57.126 107.911 57.126C109.199 57.126 110.123 56.51 110.613 55.852V57H112.223V49.286H110.613V50.406C110.137 49.776 109.241 49.16 107.939 49.16C105.909 49.16 104.299 50.728 104.299 53.108ZM110.613 53.136C110.613 54.802 109.479 55.74 108.275 55.74C107.085 55.74 105.937 54.774 105.937 53.108C105.937 51.442 107.085 50.546 108.275 50.546C109.479 50.546 110.613 51.484 110.613 53.136ZM113.788 53.108C113.788 55.488 115.398 57.126 117.428 57.126C118.688 57.126 119.612 56.538 120.102 55.838V57H121.712V46.64H120.102V50.364C119.514 49.636 118.45 49.16 117.442 49.16C115.398 49.16 113.788 50.728 113.788 53.108ZM120.102 53.136C120.102 54.802 118.968 55.74 117.764 55.74C116.574 55.74 115.426 54.774 115.426 53.108C115.426 51.442 116.574 50.546 117.764 50.546C118.968 50.546 120.102 51.484 120.102 53.136ZM129.562 54.844C129.478 52.058 125.124 52.926 125.124 51.372C125.124 50.854 125.572 50.504 126.426 50.504C127.294 50.504 127.812 50.966 127.868 51.638H129.464C129.38 50.098 128.232 49.16 126.482 49.16C124.662 49.16 123.514 50.154 123.514 51.386C123.514 54.214 127.994 53.346 127.994 54.858C127.994 55.39 127.504 55.782 126.58 55.782C125.698 55.782 125.096 55.264 125.04 54.634H123.388C123.458 56.034 124.76 57.126 126.608 57.126C128.428 57.126 129.562 56.146 129.562 54.844Z" fill="#F8F9FE"/>
<path d="M40.74 109.361H44.07C44.28 107.831 45.39 106.391 47.79 106.391C50.13 106.391 51.36 107.651 51.36 109.541C51.36 111.881 49.47 112.781 46.38 112.811H45.57V115.631H46.35C49.92 115.631 51.78 116.621 51.78 119.501C51.78 121.541 50.52 123.101 47.97 123.101C45.39 123.101 43.89 121.541 43.74 119.501H40.44C40.65 123.791 43.86 125.951 48 125.951C52.56 125.951 55.02 123.311 55.02 119.831C55.02 116.801 53.55 114.911 51.27 114.221V114.101C52.98 113.531 54.63 111.761 54.63 109.151C54.63 105.971 52.26 103.451 47.91 103.451C43.92 103.451 40.98 105.581 40.74 109.361ZM56.9625 130.001H59.1825L62.8125 121.721H59.0925L56.9625 130.001ZM64.7508 104.051V106.961H75.8508L67.4208 125.831H70.8708L79.2108 106.601V104.051H64.7508ZM81.8679 125.531H96.4479V122.681H86.9379C90.4479 119.471 95.8479 115.421 95.8479 110.111C95.8479 106.181 93.3279 103.511 88.8879 103.511C85.0179 103.511 81.9579 105.821 81.8379 110.561H85.1379C85.2279 108.101 86.5179 106.421 88.9179 106.421C91.4679 106.421 92.4579 107.981 92.4579 110.261C92.4579 114.551 87.0279 118.511 81.8679 123.041V125.531ZM100.562 119.891C100.832 123.011 102.932 125.801 107.462 125.801C113.192 125.801 114.752 121.871 114.752 114.491C114.752 107.321 112.862 103.451 107.222 103.451C102.632 103.451 99.9623 106.331 99.9623 110.681C99.9623 115.301 103.082 117.671 106.922 117.671C108.902 117.671 110.792 116.921 111.782 115.541C111.782 121.121 110.402 122.951 107.672 122.951C105.392 122.951 104.102 121.841 103.712 119.891H100.562ZM107.522 114.791C104.492 114.791 103.232 112.841 103.232 110.591C103.232 108.071 104.762 106.301 107.312 106.301C109.802 106.301 111.392 107.891 111.392 110.681C111.392 113.141 109.952 114.791 107.522 114.791Z" fill="#161C28"/>
<path d="M39.72 148.524V150.27H46.38L41.322 161.592H43.392L48.396 150.054V148.524H39.72ZM50.1523 154.86C50.1523 158.676 51.1603 161.556 54.8323 161.556C58.5043 161.556 59.5123 158.676 59.5123 154.86C59.5123 151.116 58.5043 148.236 54.8323 148.236C51.1603 148.236 50.1523 151.116 50.1523 154.86ZM57.4963 154.86C57.4963 157.434 57.2263 159.684 54.8323 159.684C52.4383 159.684 52.1683 157.434 52.1683 154.86C52.1683 152.412 52.4383 150.108 54.8323 150.108C57.2263 150.108 57.4963 152.412 57.4963 154.86ZM64.0775 160.404C64.0775 159.666 63.5015 159.09 62.7815 159.09C62.0435 159.09 61.4675 159.666 61.4675 160.404C61.4675 161.142 62.0435 161.718 62.7815 161.718C63.5015 161.718 64.0775 161.142 64.0775 160.404ZM66.0253 154.86C66.0253 158.676 67.0333 161.556 70.7053 161.556C74.3773 161.556 75.3853 158.676 75.3853 154.86C75.3853 151.116 74.3773 148.236 70.7053 148.236C67.0333 148.236 66.0253 151.116 66.0253 154.86ZM73.3693 154.86C73.3693 157.434 73.0993 159.684 70.7053 159.684C68.3113 159.684 68.0413 157.434 68.0413 154.86C68.0413 152.412 68.3113 150.108 70.7053 150.108C73.0993 150.108 73.3693 152.412 73.3693 154.86ZM77.2326 151.638C77.2326 153.438 78.4026 154.464 79.9686 154.464C81.5346 154.464 82.7046 153.438 82.7046 151.638C82.7046 149.856 81.5346 148.83 79.9686 148.83C78.4026 148.83 77.2326 149.856 77.2326 151.638ZM79.9686 150.072C80.6526 150.072 81.1026 150.522 81.1026 151.638C81.1026 152.754 80.6526 153.222 79.9686 153.222C79.2666 153.222 78.8346 152.754 78.8346 151.638C78.8346 150.522 79.2666 150.072 79.9686 150.072ZM79.0146 161.592H81.0306L88.2126 149.064H86.1966L79.0146 161.592ZM84.5586 159C84.5586 160.8 85.7286 161.826 87.2946 161.826C88.8426 161.826 90.0126 160.8 90.0126 159C90.0126 157.2 88.8426 156.192 87.2946 156.192C85.7286 156.192 84.5586 157.2 84.5586 159ZM87.2766 157.434C87.9606 157.434 88.4106 157.884 88.4106 159C88.4106 160.116 87.9606 160.566 87.2766 160.566C86.5926 160.566 86.1426 160.116 86.1426 159C86.1426 157.884 86.5926 157.434 87.2766 157.434Z" fill="#B7BECB"/>
<path d="M155 159.254C162.832 150.536 180.142 138.092 186.721 158.065C194.945 183.032 206.694 166.388 206.694 130.721C206.694 95.0534 225.492 59.3862 229.016 98.6201C229.016 103.376 231.366 112.887 240.765 112.887C252.514 112.887 245.464 154.499 266.612 143.798C276.011 137.854 263.087 91.4867 283.06 81.9754C292.459 77.2198 292.459 58.1973 292.459 39.1749C292.459 20.1524 310.082 16.5857 313.607 35.6082C314.781 48.6861 311.257 65.3308 325.355 68.8975C337.104 71.2753 332.404 98.62 335.929 128.343C339.454 146.176 353.552 144.987 359.426 120.02C361.306 111.46 367.259 111.698 370 112.887" stroke="#0F8CE9" stroke-width="3" stroke-linecap="round"/>
<defs>
<linearGradient id="paint0_linear_1_705" x1="262" y1="23" x2="262" y2="165.408" gradientUnits="userSpaceOnUse">
<stop stop-color="#67BEFF"/>
<stop offset="1" stop-color="#F8F9FE"/>
</linearGradient>
</defs>
</svg>
