<svg width="605" height="574" viewBox="0 0 605 574" fill="none" xmlns="http://www.w3.org/2000/svg">
<rect x="0.121094" y="106.089" width="512" height="478" rx="14" transform="rotate(-11.9313 0.121094 106.089)" fill="#E8E8FF"/>
<path d="M605 306C605 371.17 552.17 424 487 424C421.83 424 369 371.17 369 306C369 240.83 421.83 188 487 188C552.17 188 605 240.83 605 306ZM384.133 306C384.133 362.812 430.188 408.867 487 408.867C543.812 408.867 589.867 362.812 589.867 306C589.867 249.188 543.812 203.133 487 203.133C430.188 203.133 384.133 249.188 384.133 306Z" fill="#CFD1F7"/>
<path d="M568 306.5C568 351.511 531.735 388 487 388C442.265 388 406 351.511 406 306.5C406 261.489 442.265 225 487 225C531.735 225 568 261.489 568 306.5ZM419.987 306.5C419.987 343.739 449.99 373.927 487 373.927C524.01 373.927 554.013 343.739 554.013 306.5C554.013 269.261 524.01 239.073 487 239.073C449.99 239.073 419.987 269.261 419.987 306.5Z" fill="#CFD1F7"/>
</svg>
