<svg width="594" height="437" viewBox="0 0 594 437" fill="none" xmlns="http://www.w3.org/2000/svg">
<g filter="url(#filter0_d_253_6)">
<rect x="90" y="65" width="414" height="257" rx="14" fill="#F8F9FE"/>
</g>
<path d="M123.789 270.469L126.25 277.008L128.705 270.469H130.621V279H129.145V276.188L129.291 272.426L126.771 279H125.711L123.197 272.432L123.344 276.188V279H121.867V270.469H123.789ZM131.975 275.771C131.975 275.15 132.098 274.592 132.344 274.096C132.59 273.596 132.936 273.213 133.381 272.947C133.826 272.678 134.338 272.543 134.916 272.543C135.771 272.543 136.465 272.818 136.996 273.369C137.531 273.92 137.82 274.65 137.863 275.561L137.869 275.895C137.869 276.52 137.748 277.078 137.506 277.57C137.268 278.062 136.924 278.443 136.475 278.713C136.029 278.982 135.514 279.117 134.928 279.117C134.033 279.117 133.316 278.82 132.777 278.227C132.242 277.629 131.975 276.834 131.975 275.842V275.771ZM133.398 275.895C133.398 276.547 133.533 277.059 133.803 277.43C134.072 277.797 134.447 277.98 134.928 277.98C135.408 277.98 135.781 277.793 136.047 277.418C136.316 277.043 136.451 276.494 136.451 275.771C136.451 275.131 136.312 274.623 136.035 274.248C135.762 273.873 135.389 273.686 134.916 273.686C134.451 273.686 134.082 273.871 133.809 274.242C133.535 274.609 133.398 275.16 133.398 275.895ZM140.395 272.66L140.436 273.393C140.904 272.826 141.52 272.543 142.281 272.543C143.602 272.543 144.273 273.299 144.297 274.811V279H142.873V274.893C142.873 274.49 142.785 274.193 142.609 274.002C142.438 273.807 142.154 273.709 141.76 273.709C141.186 273.709 140.758 273.969 140.477 274.488V279H139.053V272.66H140.395Z" fill="#636975"/>
<path d="M186.031 271.664H183.371V279H181.9V271.664H179.264V270.469H186.031V271.664ZM190.473 278.379C190.055 278.871 189.461 279.117 188.691 279.117C188.004 279.117 187.482 278.916 187.127 278.514C186.775 278.111 186.6 277.529 186.6 276.768V272.66H188.023V276.75C188.023 277.555 188.357 277.957 189.025 277.957C189.717 277.957 190.184 277.709 190.426 277.213V272.66H191.85V279H190.508L190.473 278.379ZM196.092 279.117C195.189 279.117 194.457 278.834 193.895 278.268C193.336 277.697 193.057 276.939 193.057 275.994V275.818C193.057 275.186 193.178 274.621 193.42 274.125C193.666 273.625 194.01 273.236 194.451 272.959C194.893 272.682 195.385 272.543 195.928 272.543C196.791 272.543 197.457 272.818 197.926 273.369C198.398 273.92 198.635 274.699 198.635 275.707V276.281H194.492C194.535 276.805 194.709 277.219 195.014 277.523C195.322 277.828 195.709 277.98 196.174 277.98C196.826 277.98 197.357 277.717 197.768 277.189L198.535 277.922C198.281 278.301 197.941 278.596 197.516 278.807C197.094 279.014 196.619 279.117 196.092 279.117ZM195.922 273.686C195.531 273.686 195.215 273.822 194.973 274.096C194.734 274.369 194.582 274.75 194.516 275.238H197.229V275.133C197.197 274.656 197.07 274.297 196.848 274.055C196.625 273.809 196.316 273.686 195.922 273.686Z" fill="#636975"/>
<path d="M300.031 271.664H297.371V279H295.9V271.664H293.264V270.469H300.031V271.664ZM302.422 273.352C302.887 272.812 303.475 272.543 304.186 272.543C305.537 272.543 306.223 273.314 306.242 274.857V279H304.818V274.91C304.818 274.473 304.723 274.164 304.531 273.984C304.344 273.801 304.066 273.709 303.699 273.709C303.129 273.709 302.703 273.963 302.422 274.471V279H300.998V270H302.422V273.352ZM311.527 278.379C311.109 278.871 310.516 279.117 309.746 279.117C309.059 279.117 308.537 278.916 308.182 278.514C307.83 278.111 307.654 277.529 307.654 276.768V272.66H309.078V276.75C309.078 277.555 309.412 277.957 310.08 277.957C310.771 277.957 311.238 277.709 311.48 277.213V272.66H312.904V279H311.562L311.527 278.379Z" fill="#636975"/>
<path d="M353.783 275.385H350.35V279H348.867V270.469H354.287V271.664H350.35V274.201H353.783V275.385ZM358.494 273.961C358.307 273.93 358.113 273.914 357.914 273.914C357.262 273.914 356.822 274.164 356.596 274.664V279H355.172V272.66H356.531L356.566 273.369C356.91 272.818 357.387 272.543 357.996 272.543C358.199 272.543 358.367 272.57 358.5 272.625L358.494 273.961ZM360.908 279H359.484V272.66H360.908V279ZM359.396 271.014C359.396 270.795 359.465 270.613 359.602 270.469C359.742 270.324 359.941 270.252 360.199 270.252C360.457 270.252 360.656 270.324 360.797 270.469C360.938 270.613 361.008 270.795 361.008 271.014C361.008 271.229 360.938 271.408 360.797 271.553C360.656 271.693 360.457 271.764 360.199 271.764C359.941 271.764 359.742 271.693 359.602 271.553C359.465 271.408 359.396 271.229 359.396 271.014Z" fill="#636975"/>
<path d="M401.326 276.803C401.326 276.428 401.193 276.139 400.928 275.936C400.666 275.732 400.191 275.527 399.504 275.32C398.816 275.113 398.27 274.883 397.863 274.629C397.086 274.141 396.697 273.504 396.697 272.719C396.697 272.031 396.977 271.465 397.535 271.02C398.098 270.574 398.826 270.352 399.721 270.352C400.314 270.352 400.844 270.461 401.309 270.68C401.773 270.898 402.139 271.211 402.404 271.617C402.67 272.02 402.803 272.467 402.803 272.959H401.326C401.326 272.514 401.186 272.166 400.904 271.916C400.627 271.662 400.229 271.535 399.709 271.535C399.225 271.535 398.848 271.639 398.578 271.846C398.312 272.053 398.18 272.342 398.18 272.713C398.18 273.025 398.324 273.287 398.613 273.498C398.902 273.705 399.379 273.908 400.043 274.107C400.707 274.303 401.24 274.527 401.643 274.781C402.045 275.031 402.34 275.32 402.527 275.648C402.715 275.973 402.809 276.354 402.809 276.791C402.809 277.502 402.535 278.068 401.988 278.49C401.445 278.908 400.707 279.117 399.773 279.117C399.156 279.117 398.588 279.004 398.068 278.777C397.553 278.547 397.15 278.23 396.861 277.828C396.576 277.426 396.434 276.957 396.434 276.422H397.916C397.916 276.906 398.076 277.281 398.396 277.547C398.717 277.812 399.176 277.945 399.773 277.945C400.289 277.945 400.676 277.842 400.934 277.635C401.195 277.424 401.326 277.146 401.326 276.803ZM407.76 279C407.697 278.879 407.643 278.682 407.596 278.408C407.143 278.881 406.588 279.117 405.932 279.117C405.295 279.117 404.775 278.936 404.373 278.572C403.971 278.209 403.77 277.76 403.77 277.225C403.77 276.549 404.02 276.031 404.52 275.672C405.023 275.309 405.742 275.127 406.676 275.127H407.549V274.711C407.549 274.383 407.457 274.121 407.273 273.926C407.09 273.727 406.811 273.627 406.436 273.627C406.111 273.627 405.846 273.709 405.639 273.873C405.432 274.033 405.328 274.238 405.328 274.488H403.904C403.904 274.141 404.02 273.816 404.25 273.516C404.48 273.211 404.793 272.973 405.188 272.801C405.586 272.629 406.029 272.543 406.518 272.543C407.26 272.543 407.852 272.73 408.293 273.105C408.734 273.477 408.961 274 408.973 274.676V277.535C408.973 278.105 409.053 278.561 409.213 278.9V279H407.76ZM406.195 277.975C406.477 277.975 406.74 277.906 406.986 277.77C407.236 277.633 407.424 277.449 407.549 277.219V276.023H406.781C406.254 276.023 405.857 276.115 405.592 276.299C405.326 276.482 405.193 276.742 405.193 277.078C405.193 277.352 405.283 277.57 405.463 277.734C405.646 277.895 405.891 277.975 406.195 277.975ZM412.248 271.119V272.66H413.367V273.715H412.248V277.254C412.248 277.496 412.295 277.672 412.389 277.781C412.486 277.887 412.658 277.939 412.904 277.939C413.068 277.939 413.234 277.92 413.402 277.881V278.982C413.078 279.072 412.766 279.117 412.465 279.117C411.371 279.117 410.824 278.514 410.824 277.307V273.715H409.781V272.66H410.824V271.119H412.248Z" fill="#636975"/>
<path d="M453.326 276.803C453.326 276.428 453.193 276.139 452.928 275.936C452.666 275.732 452.191 275.527 451.504 275.32C450.816 275.113 450.27 274.883 449.863 274.629C449.086 274.141 448.697 273.504 448.697 272.719C448.697 272.031 448.977 271.465 449.535 271.02C450.098 270.574 450.826 270.352 451.721 270.352C452.314 270.352 452.844 270.461 453.309 270.68C453.773 270.898 454.139 271.211 454.404 271.617C454.67 272.02 454.803 272.467 454.803 272.959H453.326C453.326 272.514 453.186 272.166 452.904 271.916C452.627 271.662 452.229 271.535 451.709 271.535C451.225 271.535 450.848 271.639 450.578 271.846C450.312 272.053 450.18 272.342 450.18 272.713C450.18 273.025 450.324 273.287 450.613 273.498C450.902 273.705 451.379 273.908 452.043 274.107C452.707 274.303 453.24 274.527 453.643 274.781C454.045 275.031 454.34 275.32 454.527 275.648C454.715 275.973 454.809 276.354 454.809 276.791C454.809 277.502 454.535 278.068 453.988 278.49C453.445 278.908 452.707 279.117 451.773 279.117C451.156 279.117 450.588 279.004 450.068 278.777C449.553 278.547 449.15 278.23 448.861 277.828C448.576 277.426 448.434 276.957 448.434 276.422H449.916C449.916 276.906 450.076 277.281 450.396 277.547C450.717 277.812 451.176 277.945 451.773 277.945C452.289 277.945 452.676 277.842 452.934 277.635C453.195 277.424 453.326 277.146 453.326 276.803ZM459.812 278.379C459.395 278.871 458.801 279.117 458.031 279.117C457.344 279.117 456.822 278.916 456.467 278.514C456.115 278.111 455.939 277.529 455.939 276.768V272.66H457.363V276.75C457.363 277.555 457.697 277.957 458.365 277.957C459.057 277.957 459.523 277.709 459.766 277.213V272.66H461.189V279H459.848L459.812 278.379ZM463.961 272.66L464.002 273.393C464.471 272.826 465.086 272.543 465.848 272.543C467.168 272.543 467.84 273.299 467.863 274.811V279H466.439V274.893C466.439 274.49 466.352 274.193 466.176 274.002C466.004 273.807 465.721 273.709 465.326 273.709C464.752 273.709 464.324 273.969 464.043 274.488V279H462.619V272.66H463.961Z" fill="#636975"/>
<mask id="mask0_253_6" style="mask-type:alpha" maskUnits="userSpaceOnUse" x="90" y="65" width="414" height="257">
<rect x="90" y="65" width="414" height="257" fill="#F8F9FE"/>
</mask>
<g mask="url(#mask0_253_6)">
<g filter="url(#filter1_d_253_6)">
<path d="M87 204C92.6667 205.5 106.5 201.3 116.5 172.5C129 136.5 139.5 135 157.5 162C175.5 189 198 169 209.5 151.5C221 134 237.5 129.5 256.5 154C275.5 178.5 299 159.5 310.5 142C322 124.5 339 106.5 359 138C379 169.5 382 195 404 168.5C421.5 148.5 427 116 443 135C459 154 459 181.5 504.5 172" stroke="#F8C63D" stroke-width="4"/>
</g>
</g>
<rect x="221" y="95" width="51" height="208" rx="6" fill="#0F8CE9"/>
<path d="M241.559 278.891L242.871 272.469H244.342L242.373 281H240.955L239.332 274.771L237.674 281H236.25L234.281 272.469H235.752L237.076 278.879L238.705 272.469H239.947L241.559 278.891ZM247.893 281.117C246.99 281.117 246.258 280.834 245.695 280.268C245.137 279.697 244.857 278.939 244.857 277.994V277.818C244.857 277.186 244.979 276.621 245.221 276.125C245.467 275.625 245.811 275.236 246.252 274.959C246.693 274.682 247.186 274.543 247.729 274.543C248.592 274.543 249.258 274.818 249.727 275.369C250.199 275.92 250.436 276.699 250.436 277.707V278.281H246.293C246.336 278.805 246.51 279.219 246.814 279.523C247.123 279.828 247.51 279.98 247.975 279.98C248.627 279.98 249.158 279.717 249.568 279.189L250.336 279.922C250.082 280.301 249.742 280.596 249.316 280.807C248.895 281.014 248.42 281.117 247.893 281.117ZM247.723 275.686C247.332 275.686 247.016 275.822 246.773 276.096C246.535 276.369 246.383 276.75 246.316 277.238H249.029V277.133C248.998 276.656 248.871 276.297 248.648 276.055C248.426 275.809 248.117 275.686 247.723 275.686ZM251.279 277.783C251.279 276.807 251.506 276.023 251.959 275.434C252.412 274.84 253.02 274.543 253.781 274.543C254.453 274.543 254.996 274.777 255.41 275.246V272H256.834V281H255.545L255.475 280.344C255.049 280.859 254.48 281.117 253.77 281.117C253.027 281.117 252.426 280.818 251.965 280.221C251.508 279.623 251.279 278.811 251.279 277.783ZM252.703 277.906C252.703 278.551 252.826 279.055 253.072 279.418C253.322 279.777 253.676 279.957 254.133 279.957C254.715 279.957 255.141 279.697 255.41 279.178V276.471C255.148 275.963 254.727 275.709 254.145 275.709C253.684 275.709 253.328 275.893 253.078 276.26C252.828 276.623 252.703 277.172 252.703 277.906Z" fill="white"/>
<path d="M237.799 116.773C237.799 116.441 237.693 116.168 237.482 115.953C237.271 115.734 236.92 115.539 236.428 115.367C235.936 115.191 235.553 115.029 235.279 114.881C234.369 114.393 233.914 113.67 233.914 112.713C233.914 112.064 234.111 111.531 234.506 111.113C234.9 110.695 235.436 110.447 236.111 110.369V109.092H237.049V110.381C237.729 110.479 238.254 110.768 238.625 111.248C238.996 111.725 239.182 112.346 239.182 113.111H237.764C237.764 112.619 237.652 112.232 237.43 111.951C237.211 111.666 236.912 111.523 236.533 111.523C236.158 111.523 235.865 111.625 235.654 111.828C235.443 112.031 235.338 112.322 235.338 112.701C235.338 113.041 235.441 113.314 235.648 113.521C235.859 113.725 236.215 113.918 236.715 114.102C237.215 114.285 237.607 114.455 237.893 114.611C238.178 114.768 238.418 114.947 238.613 115.15C238.809 115.35 238.959 115.58 239.064 115.842C239.17 116.104 239.223 116.41 239.223 116.762C239.223 117.422 239.02 117.957 238.613 118.367C238.211 118.777 237.648 119.02 236.926 119.094V120.236H235.994V119.1C235.221 119.014 234.625 118.736 234.207 118.268C233.793 117.799 233.586 117.178 233.586 116.404H235.01C235.01 116.896 235.133 117.277 235.379 117.547C235.629 117.816 235.98 117.951 236.434 117.951C236.879 117.951 237.217 117.844 237.447 117.629C237.682 117.414 237.799 117.129 237.799 116.773ZM240.84 114.77L241.303 110.469H245.885V111.699H242.486L242.252 113.738C242.646 113.512 243.092 113.398 243.588 113.398C244.4 113.398 245.031 113.658 245.48 114.178C245.934 114.697 246.16 115.396 246.16 116.275C246.16 117.143 245.91 117.834 245.41 118.35C244.91 118.861 244.225 119.117 243.354 119.117C242.572 119.117 241.924 118.896 241.408 118.455C240.896 118.01 240.619 117.424 240.576 116.697H241.953C242.008 117.111 242.156 117.43 242.398 117.652C242.641 117.871 242.957 117.98 243.348 117.98C243.785 117.98 244.125 117.824 244.367 117.512C244.613 117.199 244.736 116.773 244.736 116.234C244.736 115.715 244.602 115.305 244.332 115.004C244.062 114.699 243.691 114.547 243.219 114.547C242.961 114.547 242.742 114.582 242.562 114.652C242.383 114.719 242.188 114.852 241.977 115.051L240.84 114.77ZM251.316 115.432C250.84 115.936 250.283 116.188 249.646 116.188C248.896 116.188 248.299 115.926 247.854 115.402C247.408 114.875 247.186 114.184 247.186 113.328C247.186 112.766 247.299 112.256 247.525 111.799C247.752 111.342 248.074 110.986 248.492 110.732C248.91 110.479 249.395 110.352 249.945 110.352C250.805 110.352 251.486 110.672 251.99 111.312C252.494 111.953 252.746 112.811 252.746 113.885V114.283C252.746 115.822 252.398 116.996 251.703 117.805C251.008 118.613 249.971 119.023 248.592 119.035H248.422V117.857H248.627C249.467 117.846 250.111 117.645 250.561 117.254C251.01 116.859 251.262 116.252 251.316 115.432ZM249.945 115.074C250.23 115.074 250.498 114.992 250.748 114.828C250.998 114.664 251.191 114.438 251.328 114.148V113.592C251.328 112.963 251.199 112.457 250.941 112.074C250.684 111.691 250.35 111.5 249.939 111.5C249.529 111.5 249.201 111.67 248.955 112.01C248.713 112.346 248.592 112.771 248.592 113.287C248.592 113.822 248.715 114.254 248.961 114.582C249.207 114.91 249.535 115.074 249.945 115.074ZM259.66 115.408C259.66 116.635 259.43 117.561 258.969 118.186C258.512 118.807 257.814 119.117 256.877 119.117C255.955 119.117 255.26 118.814 254.791 118.209C254.326 117.6 254.088 116.699 254.076 115.508V114.031C254.076 112.805 254.305 111.885 254.762 111.271C255.223 110.658 255.924 110.352 256.865 110.352C257.799 110.352 258.494 110.65 258.951 111.248C259.412 111.846 259.648 112.74 259.66 113.932V115.408ZM258.236 113.814C258.236 113.014 258.127 112.428 257.908 112.057C257.689 111.682 257.342 111.494 256.865 111.494C256.4 111.494 256.059 111.672 255.84 112.027C255.621 112.379 255.506 112.93 255.494 113.68V115.613C255.494 116.41 255.605 117.004 255.828 117.395C256.051 117.785 256.4 117.98 256.877 117.98C257.334 117.98 257.672 117.801 257.891 117.441C258.109 117.078 258.225 116.512 258.236 115.742V113.814Z" fill="white"/>
<path d="M128.273 99.3984H131.062C131.008 96.6953 128.703 94.7812 125.297 94.7812C121.938 94.7812 119.414 96.6719 119.422 99.5C119.422 101.797 121.055 103.117 123.688 103.797L125.508 104.266C127.234 104.703 128.375 105.242 128.383 106.484C128.375 107.852 127.078 108.766 125.188 108.766C123.375 108.766 121.969 107.953 121.852 106.273H119C119.117 109.453 121.484 111.242 125.211 111.242C129.047 111.242 131.273 109.328 131.281 106.508C131.273 103.734 128.984 102.469 126.578 101.898L125.078 101.523C123.766 101.211 122.344 100.656 122.359 99.3203C122.367 98.1172 123.445 97.2344 125.258 97.2344C126.984 97.2344 128.125 98.0391 128.273 99.3984ZM139.732 99H137.365V96.125H134.537V99H132.834V101.187H134.537V107.859C134.521 110.117 136.162 111.227 138.287 111.164C139.092 111.141 139.646 110.984 139.951 110.883L139.475 108.672C139.318 108.711 138.998 108.781 138.646 108.781C137.936 108.781 137.365 108.531 137.365 107.391V101.187H139.732V99ZM145.551 111.242C147.434 111.242 148.559 110.359 149.074 109.352H149.168V111H151.887V102.969C151.887 99.7969 149.301 98.8438 147.012 98.8438C144.488 98.8438 142.551 99.9687 141.926 102.156L144.566 102.531C144.848 101.711 145.645 101.008 147.027 101.008C148.34 101.008 149.059 101.68 149.059 102.859V102.906C149.059 103.719 148.207 103.758 146.09 103.984C143.762 104.234 141.535 104.93 141.535 107.633C141.535 109.992 143.262 111.242 145.551 111.242ZM146.285 109.164C145.105 109.164 144.262 108.625 144.262 107.586C144.262 106.5 145.207 106.047 146.473 105.867C147.215 105.766 148.699 105.578 149.066 105.281V106.695C149.066 108.031 147.988 109.164 146.285 109.164ZM160.723 99H158.355V96.125H155.527V99H153.824V101.187H155.527V107.859C155.512 110.117 157.152 111.227 159.277 111.164C160.082 111.141 160.637 110.984 160.941 110.883L160.465 108.672C160.309 108.711 159.988 108.781 159.637 108.781C158.926 108.781 158.355 108.531 158.355 107.391V101.187H160.723V99ZM170.736 105.953C170.736 107.781 169.432 108.687 168.182 108.687C166.822 108.687 165.916 107.727 165.916 106.203V99H163.088V106.641C163.088 109.523 164.729 111.156 167.088 111.156C168.885 111.156 170.15 110.211 170.697 108.867H170.822V111H173.564V99H170.736V105.953ZM185.957 102.172C185.566 100.141 183.941 98.8438 181.129 98.8438C178.238 98.8438 176.27 100.266 176.277 102.484C176.27 104.234 177.348 105.391 179.652 105.867L181.699 106.297C182.801 106.539 183.316 106.984 183.316 107.664C183.316 108.484 182.426 109.102 181.082 109.102C179.785 109.102 178.941 108.539 178.699 107.461L175.941 107.727C176.293 109.93 178.145 111.234 181.09 111.234C184.09 111.234 186.207 109.68 186.215 107.406C186.207 105.695 185.105 104.648 182.84 104.156L180.793 103.719C179.574 103.445 179.09 103.023 179.098 102.328C179.09 101.516 179.988 100.953 181.168 100.953C182.473 100.953 183.16 101.664 183.379 102.453L185.957 102.172Z" fill="black"/>
<circle cx="246.5" cy="143.5" r="11.5" fill="#58B5FA"/>
<circle cx="246.5" cy="143.5" r="6.5" fill="white"/>
<circle cx="90.5" cy="321.5" r="26.5" fill="#161C28"/>
<path d="M84 322.651L88.75 327L98 316" stroke="white" stroke-width="3" stroke-linecap="round" stroke-linejoin="round"/>
<defs>
<filter id="filter0_d_253_6" x="0" y="0" width="594" height="437" filterUnits="userSpaceOnUse" color-interpolation-filters="sRGB">
<feFlood flood-opacity="0" result="BackgroundImageFix"/>
<feColorMatrix in="SourceAlpha" type="matrix" values="0 0 0 0 0 0 0 0 0 0 0 0 0 0 0 0 0 0 127 0" result="hardAlpha"/>
<feOffset dy="25"/>
<feGaussianBlur stdDeviation="45"/>
<feComposite in2="hardAlpha" operator="out"/>
<feColorMatrix type="matrix" values="0 0 0 0 0.494118 0 0 0 0 0.517647 0 0 0 0 0.533333 0 0 0 0.25 0"/>
<feBlend mode="normal" in2="BackgroundImageFix" result="effect1_dropShadow_253_6"/>
<feBlend mode="normal" in="SourceGraphic" in2="effect1_dropShadow_253_6" result="shape"/>
</filter>
<filter id="filter1_d_253_6" x="72.4882" y="113.76" width="446.421" height="115.515" filterUnits="userSpaceOnUse" color-interpolation-filters="sRGB">
<feFlood flood-opacity="0" result="BackgroundImageFix"/>
<feColorMatrix in="SourceAlpha" type="matrix" values="0 0 0 0 0 0 0 0 0 0 0 0 0 0 0 0 0 0 127 0" result="hardAlpha"/>
<feOffset dy="9"/>
<feGaussianBlur stdDeviation="7"/>
<feColorMatrix type="matrix" values="0 0 0 0 0.725 0 0 0 0 0.320208 0 0 0 0 0.320208 0 0 0 0.04 0"/>
<feBlend mode="normal" in2="BackgroundImageFix" result="effect1_dropShadow_253_6"/>
<feBlend mode="normal" in="SourceGraphic" in2="effect1_dropShadow_253_6" result="shape"/>
</filter>
</defs>
</svg>
