<svg width="495" height="444" viewBox="0 0 495 444" fill="none" xmlns="http://www.w3.org/2000/svg">
<g filter="url(#filter0_d_1_748)">
<rect x="113.999" y="93" width="266.762" height="215.493" rx="11" fill="white"/>
</g>
<path d="M182.359 173.236C182.359 171.28 183.945 169.693 185.901 169.693C187.858 169.693 189.444 171.28 189.444 173.236V263.06H182.359V173.236Z" fill="#F8C63D"/>
<path d="M170.269 200.121H347.207" stroke="#ECEEF2" stroke-width="2" stroke-linecap="round" stroke-linejoin="round"/>
<path d="M169.851 231.799H346.789" stroke="#ECEEF2" stroke-width="2" stroke-linecap="round" stroke-linejoin="round"/>
<path d="M169.851 263.061H346.789" stroke="#ECEEF2" stroke-width="2" stroke-linecap="round" stroke-linejoin="round"/>
<path d="M206.948 232.425C206.948 230.468 208.535 228.882 210.491 228.882C212.448 228.882 214.034 230.468 214.034 232.425V263.061H206.948V232.425Z" fill="#F8C63D"/>
<path d="M231.542 194.912C231.542 192.955 233.128 191.369 235.085 191.369C237.042 191.369 238.628 192.955 238.628 194.912V263.061H231.542V194.912Z" fill="#F8C63D"/>
<path d="M256.132 194.912C256.132 192.955 257.718 191.369 259.675 191.369C261.632 191.369 263.218 192.955 263.218 194.912V263.061H256.132V194.912Z" fill="#F8C63D"/>
<path d="M280.726 219.504C280.726 217.547 282.312 215.961 284.269 215.961C286.225 215.961 287.812 217.547 287.812 219.504V262.227H280.726V219.504Z" fill="#F8C63D"/>
<path d="M305.316 232.425C305.316 230.468 306.902 228.882 308.858 228.882C310.815 228.882 312.401 230.468 312.401 232.425V263.061H305.316V232.425Z" fill="#F8C63D"/>
<path d="M329.909 194.912C329.909 192.955 331.496 191.369 333.452 191.369C335.409 191.369 336.995 192.955 336.995 194.912V263.061H329.909V194.912Z" fill="#F8C63D"/>
<path d="M182.359 189.91C182.359 187.953 183.945 186.367 185.901 186.367C187.858 186.367 189.444 187.953 189.444 189.91V263.061H182.359V189.91Z" fill="#0F8CE9"/>
<path d="M206.948 242.012C206.948 240.055 208.535 238.469 210.491 238.469C212.448 238.469 214.034 240.055 214.034 242.012V263.061H206.948V242.012Z" fill="#0F8CE9"/>
<path d="M231.542 216.586C231.542 214.629 233.128 213.043 235.085 213.043C237.042 213.043 238.628 214.629 238.628 216.586V263.061H231.542V216.586Z" fill="#0F8CE9"/>
<path d="M256.132 216.586C256.132 214.629 257.718 213.043 259.675 213.043C261.632 213.043 263.218 214.629 263.218 216.586V263.061H256.132V216.586Z" fill="#0F8CE9"/>
<path d="M280.726 238.26C280.726 236.303 282.312 234.717 284.269 234.717C286.225 234.717 287.812 236.303 287.812 238.26V263.06H280.726V238.26Z" fill="#0F8CE9"/>
<path d="M305.316 250.765C305.316 248.808 306.902 247.222 308.858 247.222C310.815 247.222 312.401 248.808 312.401 250.765V263.061H305.316V250.765Z" fill="#0F8CE9"/>
<path d="M329.909 213.668C329.909 211.711 331.496 210.125 333.452 210.125C335.409 210.125 336.995 211.711 336.995 213.668V263.06H329.909V213.668Z" fill="#0F8CE9"/>
<path d="M147.587 172.115C148.923 172.115 149.904 171.316 149.901 170.229C149.904 169.401 149.403 168.807 148.533 168.673V168.622C149.217 168.446 149.661 167.909 149.658 167.174C149.661 166.212 148.872 165.39 147.613 165.39C146.411 165.39 145.446 166.116 145.414 167.18H146.37C146.392 166.579 146.958 166.215 147.6 166.215C148.268 166.215 148.706 166.621 148.703 167.225C148.706 167.858 148.198 168.273 147.472 168.273H146.919V169.079H147.472C148.38 169.079 148.904 169.539 148.904 170.197C148.904 170.833 148.351 171.265 147.581 171.265C146.871 171.265 146.318 170.9 146.28 170.319H145.276C145.318 171.386 146.264 172.115 147.587 172.115ZM153.388 172.134C154.9 172.134 155.785 170.9 155.785 168.756C155.785 166.627 154.887 165.39 153.388 165.39C151.886 165.39 150.991 166.624 150.988 168.756C150.988 170.897 151.873 172.131 153.388 172.134ZM153.388 171.281C152.503 171.281 151.969 170.392 151.969 168.756C151.972 167.126 152.506 166.228 153.388 166.228C154.267 166.228 154.804 167.126 154.804 168.756C154.804 170.392 154.27 171.281 153.388 171.281ZM159.198 172.134C160.709 172.134 161.595 170.9 161.595 168.756C161.595 166.627 160.697 165.39 159.198 165.39C157.695 165.39 156.801 166.624 156.797 168.756C156.797 170.897 157.683 172.131 159.198 172.134ZM159.198 171.281C158.312 171.281 157.779 170.392 157.779 168.756C157.782 167.126 158.315 166.228 159.198 166.228C160.076 166.228 160.613 167.126 160.613 168.756C160.613 170.392 160.08 171.281 159.198 171.281Z" fill="#A3A3AC"/>
<path d="M145.308 203.285H149.617V202.438H146.67V202.39L147.971 201.029C149.169 199.817 149.511 199.239 149.511 198.507C149.511 197.456 148.655 196.65 147.421 196.65C146.197 196.65 145.302 197.443 145.302 198.638H146.245C146.242 197.935 146.696 197.475 147.402 197.475C148.067 197.475 148.572 197.884 148.572 198.536C148.572 199.114 148.226 199.53 147.523 200.275L145.308 202.569V203.285ZM153.107 203.394C154.618 203.394 155.504 202.16 155.504 200.016C155.504 197.887 154.606 196.65 153.107 196.65C151.605 196.65 150.71 197.884 150.707 200.016C150.707 202.157 151.592 203.391 153.107 203.394ZM153.107 202.54C152.221 202.54 151.688 201.652 151.688 200.016C151.691 198.386 152.225 197.488 153.107 197.488C153.986 197.488 154.523 198.386 154.523 200.016C154.523 201.652 153.989 202.54 153.107 202.54ZM158.916 203.394C160.428 203.394 161.313 202.16 161.313 200.016C161.313 197.887 160.415 196.65 158.916 196.65C157.414 196.65 156.519 197.884 156.516 200.016C156.516 202.157 157.401 203.391 158.916 203.394ZM158.916 202.54C158.031 202.54 157.497 201.652 157.497 200.016C157.5 198.386 158.034 197.488 158.916 197.488C159.795 197.488 160.332 198.386 160.332 200.016C160.332 201.652 159.798 202.54 158.916 202.54Z" fill="#A3A3AC"/>
<path d="M147.792 227.167H146.83L145.197 228.235V229.181L146.763 228.158H146.801V233.713H147.792V227.167ZM151.841 233.822C153.353 233.822 154.238 232.588 154.238 230.443C154.238 228.315 153.34 227.078 151.841 227.078C150.339 227.078 149.444 228.312 149.441 230.443C149.441 232.585 150.326 233.818 151.841 233.822ZM151.841 232.968C150.956 232.968 150.422 232.08 150.422 230.443C150.425 228.813 150.959 227.915 151.841 227.915C152.72 227.915 153.257 228.813 153.257 230.443C153.257 232.08 152.723 232.968 151.841 232.968ZM157.651 233.822C159.162 233.822 160.048 232.588 160.048 230.443C160.048 228.315 159.15 227.078 157.651 227.078C156.149 227.078 155.254 228.312 155.25 230.443C155.25 232.585 156.136 233.818 157.651 233.822ZM157.651 232.968C156.765 232.968 156.232 232.08 156.232 230.443C156.235 228.813 156.769 227.915 157.651 227.915C158.53 227.915 159.067 228.813 159.067 230.443C159.067 232.08 158.533 232.968 157.651 232.968Z" fill="#A3A3AC"/>
<path d="M150.087 265.083C151.599 265.083 152.484 263.85 152.484 261.705C152.484 259.577 151.586 258.34 150.087 258.34C148.585 258.34 147.69 259.573 147.687 261.705C147.687 263.846 148.572 265.08 150.087 265.083ZM150.087 264.23C149.202 264.23 148.668 263.341 148.668 261.705C148.671 260.075 149.205 259.177 150.087 259.177C150.966 259.177 151.503 260.075 151.503 261.705C151.503 263.341 150.969 264.23 150.087 264.23Z" fill="#9FA2AC"/>
<path d="M183.063 271.182V277H183.722V272.58H183.779L185.597 277H186.234L188.052 272.58H188.109V277H188.768V271.182H187.927L185.949 276.011H185.881L183.904 271.182H183.063Z" fill="#A3A7AF"/>
<path d="M207.753 271.807H209.582V277H210.287V271.807H212.116V271.182H207.753V271.807Z" fill="#A3A7AF"/>
<path d="M232.308 277H232.968L233.922 273.648H233.99L234.945 277H235.604L236.933 272.636H236.229L235.286 275.966H235.24L234.32 272.636H233.604L232.672 275.977H232.627L231.683 272.636H230.979L232.308 277Z" fill="#A3A7AF"/>
<path d="M257.354 271.807H259.184V277H259.888V271.807H261.718V271.182H257.354V271.807Z" fill="#A3A7AF"/>
<path d="M282.68 277H283.385V274.398H285.907V273.773H283.385V271.807H286.169V271.182H282.68V277Z" fill="#A3A7AF"/>
<path d="M310.038 272.636H310.72C310.688 271.759 309.879 271.102 308.754 271.102C307.64 271.102 306.765 271.75 306.765 272.727C306.765 273.511 307.333 273.977 308.242 274.239L308.958 274.443C309.572 274.614 310.117 274.83 310.117 275.409C310.117 276.045 309.504 276.466 308.697 276.466C308.004 276.466 307.39 276.159 307.333 275.5H306.606C306.674 276.455 307.447 277.102 308.697 277.102C310.038 277.102 310.799 276.364 310.799 275.42C310.799 274.33 309.765 273.977 309.163 273.818L308.572 273.659C308.14 273.545 307.447 273.318 307.447 272.693C307.447 272.136 307.958 271.727 308.731 271.727C309.436 271.727 309.97 272.062 310.038 272.636Z" fill="#A3A7AF"/>
<path d="M334.628 272.636H335.31C335.278 271.759 334.469 271.102 333.344 271.102C332.23 271.102 331.355 271.75 331.355 272.727C331.355 273.511 331.923 273.977 332.832 274.239L333.548 274.443C334.162 274.614 334.707 274.83 334.707 275.409C334.707 276.045 334.094 276.466 333.287 276.466C332.594 276.466 331.98 276.159 331.923 275.5H331.196C331.264 276.455 332.037 277.102 333.287 277.102C334.628 277.102 335.389 276.364 335.389 275.42C335.389 274.33 334.355 273.977 333.753 273.818L333.162 273.659C332.73 273.545 332.037 273.318 332.037 272.693C332.037 272.136 332.548 271.727 333.321 271.727C334.025 271.727 334.56 272.062 334.628 272.636Z" fill="#A3A7AF"/>
<path d="M169.851 169.277H346.789" stroke="#EEF0F4" stroke-width="2" stroke-linecap="round" stroke-linejoin="round"/>
<path d="M156.851 132.664V139.162C156.851 140.439 155.962 141.354 154.564 141.354C153.162 141.354 152.278 140.439 152.278 139.162V132.664H150.433V139.316C150.433 141.503 152.074 143 154.564 143C157.045 143 158.696 141.503 158.696 139.316V132.664H156.851ZM166.657 137.228C166.408 135.935 165.374 135.11 163.584 135.11C161.745 135.11 160.492 136.015 160.497 137.427C160.492 138.54 161.178 139.276 162.645 139.579L163.947 139.853C164.648 140.007 164.976 140.29 164.976 140.723C164.976 141.245 164.409 141.638 163.554 141.638C162.729 141.638 162.192 141.28 162.038 140.594L160.283 140.763C160.507 142.165 161.685 142.995 163.559 142.995C165.468 142.995 166.816 142.006 166.821 140.559C166.816 139.47 166.115 138.804 164.673 138.491L163.37 138.212C162.595 138.038 162.287 137.77 162.292 137.327C162.287 136.81 162.858 136.452 163.609 136.452C164.439 136.452 164.877 136.905 165.016 137.407L166.657 137.228ZM171.685 142.995C173.465 142.995 174.688 142.125 175.006 140.797L173.326 140.608C173.082 141.255 172.486 141.593 171.71 141.593C170.547 141.593 169.776 140.827 169.761 139.52H175.081V138.968C175.081 136.288 173.47 135.11 171.591 135.11C169.403 135.11 167.977 136.716 167.977 139.072C167.977 141.469 169.384 142.995 171.685 142.995ZM169.766 138.307C169.821 137.332 170.542 136.512 171.616 136.512C172.65 136.512 173.346 137.268 173.356 138.307H169.766ZM176.604 142.846H178.403V138.356C178.403 137.387 179.134 136.701 180.123 136.701C180.427 136.701 180.805 136.756 180.959 136.805V135.15C180.795 135.12 180.511 135.1 180.312 135.1C179.437 135.1 178.707 135.597 178.428 136.482H178.349V135.209H176.604V142.846ZM188.19 137.228C187.941 135.935 186.907 135.11 185.117 135.11C183.278 135.11 182.025 136.015 182.03 137.427C182.025 138.54 182.711 139.276 184.178 139.579L185.48 139.853C186.181 140.007 186.509 140.29 186.509 140.723C186.509 141.245 185.943 141.638 185.088 141.638C184.262 141.638 183.725 141.28 183.571 140.594L181.816 140.763C182.04 142.165 183.218 142.995 185.093 142.995C187.002 142.995 188.349 142.006 188.354 140.559C188.349 139.47 187.648 138.804 186.206 138.491L184.904 138.212C184.128 138.038 183.82 137.77 183.825 137.327C183.82 136.81 184.392 136.452 185.142 136.452C185.973 136.452 186.41 136.905 186.549 137.407L188.19 137.228ZM194.698 142.846L195.538 140.335H199.366L200.211 142.846H202.18L198.59 132.664H196.313L192.729 142.846H194.698ZM196.035 138.854L197.412 134.752H197.492L198.869 138.854H196.035ZM206.54 142.995C208.459 142.995 209.682 141.856 209.811 140.236H208.091C207.937 141.056 207.345 141.528 206.555 141.528C205.431 141.528 204.705 140.589 204.705 139.028C204.705 137.486 205.446 136.562 206.555 136.562C207.42 136.562 207.952 137.118 208.091 137.854H209.811C209.687 136.199 208.394 135.11 206.53 135.11C204.293 135.11 202.881 136.726 202.881 139.057C202.881 141.369 204.258 142.995 206.54 142.995ZM215.102 135.209H213.596V133.38H211.796V135.209H210.712V136.601H211.796V140.847C211.786 142.284 212.83 142.99 214.183 142.95C214.695 142.935 215.048 142.836 215.242 142.771L214.938 141.364C214.839 141.389 214.635 141.434 214.411 141.434C213.959 141.434 213.596 141.275 213.596 140.549V136.601H215.102V135.209ZM216.607 142.846H218.407V135.209H216.607V142.846ZM217.512 134.126C218.084 134.126 218.551 133.688 218.551 133.151C218.551 132.609 218.084 132.172 217.512 132.172C216.936 132.172 216.468 132.609 216.468 133.151C216.468 133.688 216.936 134.126 217.512 134.126ZM227.079 135.209H225.165L223.405 140.882H223.325L221.57 135.209H219.651L222.371 142.846H224.359L227.079 135.209ZM228.324 142.846H230.124V135.209H228.324V142.846ZM229.229 134.126C229.801 134.126 230.268 133.688 230.268 133.151C230.268 132.609 229.801 132.172 229.229 132.172C228.652 132.172 228.185 132.609 228.185 133.151C228.185 133.688 228.652 134.126 229.229 134.126ZM235.788 135.209H234.281V133.38H232.482V135.209H231.398V136.601H232.482V140.847C232.472 142.284 233.516 142.99 234.868 142.95C235.38 142.935 235.733 142.836 235.927 142.771L235.624 141.364C235.524 141.389 235.321 141.434 235.097 141.434C234.644 141.434 234.281 141.275 234.281 140.549V136.601H235.788V135.209ZM238.412 145.709C239.814 145.709 240.624 144.988 241.056 143.77L244.124 135.219L242.2 135.209L240.435 140.976H240.356L238.596 135.209H236.686L239.456 143.005L239.302 143.417C238.968 144.287 238.441 144.347 237.656 144.118L237.238 145.52C237.482 145.62 237.919 145.709 238.412 145.709Z" fill="#2B324D"/>
<path d="M288.391 130.14H291.136V137.93H292.192V130.14H294.937V129.202H288.391V130.14ZM297.437 133.992C297.437 132.85 298.166 132.202 299.159 132.202C300.105 132.202 300.676 132.799 300.676 133.839V137.93H301.681V133.771C301.681 132.087 300.786 131.299 299.448 131.299C298.417 131.299 297.829 131.729 297.522 132.407H297.437V129.202H296.431V137.93H297.437V133.992ZM303.521 137.93H304.527V131.384H303.521V137.93ZM304.033 130.293C304.425 130.293 304.748 129.987 304.748 129.612C304.748 129.237 304.425 128.93 304.033 128.93C303.64 128.93 303.317 129.237 303.317 129.612C303.317 129.987 303.64 130.293 304.033 130.293ZM311.005 132.85C310.69 131.921 309.982 131.299 308.687 131.299C307.306 131.299 306.284 132.083 306.284 133.191C306.284 134.094 306.821 134.7 308.022 134.981L309.113 135.237C309.774 135.39 310.085 135.705 310.085 136.157C310.085 136.719 309.488 137.18 308.551 137.18C307.728 137.18 307.213 136.826 307.034 136.123L306.079 136.362C306.313 137.474 307.23 138.066 308.568 138.066C310.089 138.066 311.125 137.235 311.125 136.106C311.125 135.194 310.553 134.619 309.386 134.333L308.414 134.094C307.639 133.903 307.289 133.643 307.289 133.14C307.289 132.577 307.886 132.168 308.687 132.168C309.565 132.168 309.927 132.654 310.102 133.106L311.005 132.85ZM317.735 137.93H318.826L320.752 130.975H320.82L322.746 137.93H323.837L326.224 129.202H325.15L323.326 136.31H323.241L321.383 129.202H320.189L318.332 136.31H318.246L316.422 129.202H315.349L317.735 137.93ZM329.539 138.066C330.868 138.066 331.84 137.401 332.147 136.413L331.175 136.14C330.92 136.822 330.327 137.163 329.539 137.163C328.359 137.163 327.545 136.4 327.498 134.998H332.249V134.572C332.249 132.134 330.8 131.299 329.437 131.299C327.664 131.299 326.488 132.697 326.488 134.708C326.488 136.719 327.647 138.066 329.539 138.066ZM327.498 134.129C327.566 133.11 328.286 132.202 329.437 132.202C330.528 132.202 331.226 133.021 331.226 134.129H327.498ZM336.523 138.066C337.853 138.066 338.824 137.401 339.131 136.413L338.16 136.14C337.904 136.822 337.312 137.163 336.523 137.163C335.343 137.163 334.529 136.4 334.482 134.998H339.234V134.572C339.234 132.134 337.785 131.299 336.421 131.299C334.648 131.299 333.472 132.697 333.472 134.708C333.472 136.719 334.631 138.066 336.523 138.066ZM334.482 134.129C334.55 133.11 335.27 132.202 336.421 132.202C337.512 132.202 338.211 133.021 338.211 134.129H334.482ZM340.763 137.93H341.769V135.479L342.472 134.827L344.922 137.93H346.201L343.231 134.18L345.996 131.384H344.752L341.888 134.299H341.769V129.202H340.763V137.93Z" fill="#9197A0"/>
<path d="M355.362 137.87C355.439 137.943 355.559 137.943 355.636 137.87L359.897 133.845C360.028 133.721 359.94 133.5 359.759 133.5H351.239C351.058 133.5 350.97 133.721 351.102 133.845L355.362 137.87Z" fill="#B8BDC9"/>
<defs>
<filter id="filter0_d_1_748" x="-0.000854492" y="0" width="494.762" height="443.493" filterUnits="userSpaceOnUse" color-interpolation-filters="sRGB">
<feFlood flood-opacity="0" result="BackgroundImageFix"/>
<feColorMatrix in="SourceAlpha" type="matrix" values="0 0 0 0 0 0 0 0 0 0 0 0 0 0 0 0 0 0 127 0" result="hardAlpha"/>
<feMorphology radius="6" operator="erode" in="SourceAlpha" result="effect1_dropShadow_1_748"/>
<feOffset dy="21"/>
<feGaussianBlur stdDeviation="60"/>
<feComposite in2="hardAlpha" operator="out"/>
<feColorMatrix type="matrix" values="0 0 0 0 0.713854 0 0 0 0 0.724979 0 0 0 0 0.741667 0 0 0 0.69 0"/>
<feBlend mode="normal" in2="BackgroundImageFix" result="effect1_dropShadow_1_748"/>
<feBlend mode="normal" in="SourceGraphic" in2="effect1_dropShadow_1_748" result="shape"/>
</filter>
</defs>
</svg>
