<svg width="501" height="523" viewBox="0 0 501 523" fill="none" xmlns="http://www.w3.org/2000/svg">
<rect x="111.409" width="402.119" height="433.708" rx="20" transform="rotate(14.8848 111.409 0)" fill="#EAF2F9"/>
<path d="M329 184.5C329 257.678 269.678 317 196.5 317C123.322 317 64 257.678 64 184.5C64 111.322 123.322 52 196.5 52C269.678 52 329 111.322 329 184.5ZM79.0236 184.5C79.0236 249.38 131.62 301.976 196.5 301.976C261.38 301.976 313.976 249.38 313.976 184.5C313.976 119.62 261.38 67.0236 196.5 67.0236C131.62 67.0236 79.0236 119.62 79.0236 184.5Z" fill="#BFD6E0"/>
<path d="M288 185C288 235.81 247.258 277 197 277C146.742 277 106 235.81 106 185C106 134.19 146.742 93 197 93C247.258 93 288 134.19 288 185ZM122.011 185C122.011 226.87 155.585 260.813 197 260.813C238.415 260.813 271.989 226.87 271.989 185C271.989 143.13 238.415 109.187 197 109.187C155.585 109.187 122.011 143.13 122.011 185Z" fill="#BFD6E0"/>
</svg>
