<svg width="265" height="265" viewBox="0 0 265 265" fill="none" xmlns="http://www.w3.org/2000/svg">
<path d="M265 132.5C265 205.678 205.678 265 132.5 265C59.3223 265 0 205.678 0 132.5C0 59.3223 59.3223 0 132.5 0C205.678 0 265 59.3223 265 132.5ZM15.0236 132.5C15.0236 197.38 67.6196 249.976 132.5 249.976C197.38 249.976 249.976 197.38 249.976 132.5C249.976 67.6196 197.38 15.0236 132.5 15.0236C67.6196 15.0236 15.0236 67.6196 15.0236 132.5Z" fill="#BFD6E0"/>
<path d="M224 133C224 183.81 183.258 225 133 225C82.7421 225 42 183.81 42 133C42 82.1898 82.7421 41 133 41C183.258 41 224 82.1898 224 133ZM58.0111 133C58.0111 174.87 91.5848 208.813 133 208.813C174.415 208.813 207.989 174.87 207.989 133C207.989 91.1297 174.415 57.187 133 57.187C91.5848 57.187 58.0111 91.1297 58.0111 133Z" fill="#BFD6E0"/>
</svg>
