<svg width="587" height="469" viewBox="0 0 587 469" fill="none" xmlns="http://www.w3.org/2000/svg">
<g filter="url(#filter0_d_1_728)">
<rect x="74.9991" y="67" width="437" height="319" rx="14" fill="white"/>
</g>
<path d="M129.433 134.322C129.433 129.746 125.979 126.512 121.623 126.512C117.311 126.512 113.813 129.746 113.813 134.322C113.813 138.92 117.311 142.154 121.623 142.154C125.979 142.154 129.433 138.92 129.433 134.322ZM116.387 134.322C116.387 130.868 118.587 128.712 121.623 128.712C124.659 128.712 126.859 130.868 126.859 134.322C126.859 137.776 124.659 139.976 121.623 139.976C118.587 139.976 116.387 137.776 116.387 134.322ZM130.471 129.878L135.069 142H138.061L142.681 129.878H140.019L136.587 139.756L133.155 129.878H130.471ZM149.681 131.792C151.551 131.792 153.025 132.98 153.069 134.85H146.359C146.623 132.936 147.987 131.792 149.681 131.792ZM155.357 138.392H152.651C152.189 139.338 151.331 140.086 149.791 140.086C147.943 140.086 146.513 138.876 146.337 136.874H155.599C155.665 136.456 155.687 136.06 155.687 135.642C155.687 132.078 153.245 129.68 149.791 129.68C146.205 129.68 143.741 132.122 143.741 135.928C143.741 139.734 146.315 142.198 149.791 142.198C152.761 142.198 154.675 140.504 155.357 138.392ZM160.663 135.62C160.663 133.046 161.807 132.276 163.655 132.276H164.293V129.68C162.577 129.68 161.367 130.428 160.663 131.638V129.878H158.155V142H160.663V135.62ZM165.168 129.878L169.766 142H172.758L177.378 129.878H174.716L171.284 139.756L167.852 129.878H165.168ZM179.274 142H181.782V129.878H179.274V142ZM180.55 128.272C181.43 128.272 182.134 127.568 182.134 126.666C182.134 125.764 181.43 125.06 180.55 125.06C179.648 125.06 178.944 125.764 178.944 126.666C178.944 127.568 179.648 128.272 180.55 128.272ZM190.179 131.792C192.049 131.792 193.523 132.98 193.567 134.85H186.857C187.121 132.936 188.485 131.792 190.179 131.792ZM195.855 138.392H193.149C192.687 139.338 191.829 140.086 190.289 140.086C188.441 140.086 187.011 138.876 186.835 136.874H196.097C196.163 136.456 196.185 136.06 196.185 135.642C196.185 132.078 193.743 129.68 190.289 129.68C186.703 129.68 184.239 132.122 184.239 135.928C184.239 139.734 186.813 142.198 190.289 142.198C193.259 142.198 195.173 140.504 195.855 138.392ZM201.007 142H203.647L206.089 133.046L208.531 142H211.171L214.933 129.878H212.469L209.961 139.58L207.497 129.878H204.879L202.305 139.624L199.775 129.878H197.223L201.007 142Z" fill="#445B71"/>
<path d="M115.483 198H117.553V184.878H113.809V186.75H115.483V198ZM120.372 191.268C120.372 195.084 121.38 197.964 125.052 197.964C128.724 197.964 129.732 195.084 129.732 191.268C129.732 187.524 128.724 184.644 125.052 184.644C121.38 184.644 120.372 187.524 120.372 191.268ZM127.716 191.268C127.716 193.842 127.446 196.092 125.052 196.092C122.658 196.092 122.388 193.842 122.388 191.268C122.388 188.82 122.658 186.516 125.052 186.516C127.446 186.516 127.716 188.82 127.716 191.268ZM132.173 198H134.225V193.734L137.897 198H140.669L136.097 193.05L140.669 188.082H137.825L134.225 192.42V184.68H132.173V198Z" fill="#8A9BAB"/>
<path d="M123.025 244.92C122.809 243.174 121.531 241.554 118.975 241.554C115.699 241.554 114.331 244.038 114.331 248.142C114.331 252.318 115.321 255 119.137 255C121.945 255 123.439 253.11 123.439 250.626C123.439 247.89 121.765 246.306 119.407 246.306C118.039 246.306 116.743 246.882 116.095 247.962C116.149 244.524 117.103 243.264 118.957 243.264C120.253 243.264 120.883 243.858 121.135 244.92H123.025ZM118.957 248.034C120.685 248.034 121.477 249.15 121.477 250.716C121.477 252.264 120.541 253.29 119.029 253.29C117.283 253.29 116.329 252.21 116.329 250.59C116.329 248.844 117.607 248.034 118.957 248.034ZM125.898 255H127.95V250.734L131.622 255H134.394L129.822 250.05L134.394 245.082H131.55L127.95 249.42V241.68H125.898V255Z" fill="#8A9BAB"/>
<path d="M114.619 298.842V306.42H116.563C116.905 305.448 117.715 304.782 118.921 304.782C120.631 304.782 121.477 305.754 121.477 307.464C121.477 309.084 120.685 310.29 118.921 310.29C117.535 310.29 116.599 309.57 116.329 308.454H114.331C114.637 310.506 116.203 312 118.903 312C121.945 312 123.439 310.02 123.439 307.41C123.439 305.43 122.449 303.036 119.227 303.036C118.057 303.036 116.995 303.576 116.509 304.224V300.642H122.539V298.842H114.619ZM125.845 312H127.897V307.734L131.569 312H134.341L129.769 307.05L134.341 302.082H131.497L127.897 306.42V298.68H125.845V312Z" fill="#8A9BAB"/>
<rect x="380.999" y="110" width="104" height="33" rx="16.5" fill="#53BD95"/>
<path d="M406.049 131H407.645V124.336L410.627 131H411.733L414.701 124.336V131H416.297V121.27H414.589L411.187 128.9L407.771 121.27H406.049V131ZM425.745 127.136C425.745 124.714 424.009 123.16 421.811 123.16C419.613 123.16 417.877 124.714 417.877 127.136C417.877 129.558 419.543 131.126 421.741 131.126C423.953 131.126 425.745 129.558 425.745 127.136ZM419.501 127.136C419.501 125.386 420.579 124.546 421.783 124.546C422.973 124.546 424.107 125.386 424.107 127.136C424.107 128.886 422.931 129.74 421.741 129.74C420.537 129.74 419.501 128.886 419.501 127.136ZM432.797 131H434.379V126.45C434.379 124.294 433.021 123.16 431.215 123.16C430.291 123.16 429.437 123.538 428.919 124.168V123.286H427.323V131H428.919V126.688C428.919 125.274 429.689 124.546 430.865 124.546C432.027 124.546 432.797 125.274 432.797 126.688V131ZM436.666 128.858C436.666 130.426 437.52 131 438.892 131H440.152V129.67H439.172C438.5 129.67 438.276 129.432 438.276 128.858V124.588H440.152V123.286H438.276V121.368H436.666V123.286H435.756V124.588H436.666V128.858ZM441.623 131H443.219V126.688C443.219 125.274 443.989 124.546 445.165 124.546C446.327 124.546 447.097 125.274 447.097 126.688V131H448.679V126.45C448.679 124.294 447.335 123.16 445.613 123.16C444.619 123.16 443.751 123.538 443.219 124.182V120.64H441.623V131ZM450.715 131H452.311V120.64H450.715V131ZM457.445 129.166L455.275 123.286H453.497L456.535 130.874L454.967 134.626H456.619L461.351 123.286H459.699L457.445 129.166Z" fill="white"/>
<path d="M175.999 176V338.5" stroke="#FCFCFC" stroke-width="3" stroke-linecap="round" stroke-linejoin="round"/>
<path d="M247.999 176V338.5" stroke="#FCFCFC" stroke-width="3" stroke-linecap="round" stroke-linejoin="round"/>
<path d="M319.999 176V338.5" stroke="#FCFCFC" stroke-width="3" stroke-linecap="round" stroke-linejoin="round"/>
<path d="M391.999 176V338.5" stroke="#FCFCFC" stroke-width="3" stroke-linecap="round" stroke-linejoin="round"/>
<path d="M463.999 176V338.5" stroke="#FCFCFC" stroke-width="3" stroke-linecap="round" stroke-linejoin="round"/>
<path d="M215.499 328.5C198.299 344.5 173.332 317.833 162.999 302.5V367H485.999V194.5C470.499 209 431.999 290.5 407.999 272C387.248 256.004 378.499 239.5 369.499 237.5C341.999 231.5 331.499 282 320.999 302C310.499 322 273.499 290 255.999 290.5C238.499 291 236.999 308.5 215.499 328.5Z" fill="url(#paint0_linear_1_728)"/>
<path d="M162.999 302.5C173.332 317.833 198.299 344.5 215.499 328.5C236.999 308.5 238.499 291 255.999 290.5C273.499 290 310.499 322 320.999 302C331.499 282 341.999 231.5 369.499 237.5C378.499 239.5 387.248 256.004 407.999 272C431.999 290.5 470.499 209 485.999 194.5" stroke="#486C8A" stroke-width="3" stroke-linecap="round" stroke-linejoin="round"/>
<path d="M331.463 192.304V199.04H333.191C333.495 198.176 334.215 197.584 335.287 197.584C336.807 197.584 337.559 198.448 337.559 199.968C337.559 201.408 336.855 202.48 335.287 202.48C334.055 202.48 333.223 201.84 332.983 200.848H331.207C331.479 202.672 332.871 204 335.271 204C337.975 204 339.303 202.24 339.303 199.92C339.303 198.16 338.423 196.032 335.559 196.032C334.519 196.032 333.575 196.512 333.143 197.088V193.904H338.503V192.304H331.463ZM340.321 206.224H341.505L343.441 201.808H341.457L340.321 206.224ZM345.275 192.304V199.04H347.003C347.307 198.176 348.027 197.584 349.099 197.584C350.619 197.584 351.371 198.448 351.371 199.968C351.371 201.408 350.667 202.48 349.099 202.48C347.867 202.48 347.035 201.84 346.795 200.848H345.019C345.291 202.672 346.683 204 349.083 204C351.787 204 353.115 202.24 353.115 199.92C353.115 198.16 352.235 196.032 349.371 196.032C348.331 196.032 347.387 196.512 346.955 197.088V193.904H352.315V192.304H345.275ZM362.966 195.04C362.774 193.488 361.638 192.048 359.366 192.048C356.454 192.048 355.238 194.256 355.238 197.904C355.238 201.616 356.118 204 359.51 204C362.006 204 363.334 202.32 363.334 200.112C363.334 197.68 361.846 196.272 359.75 196.272C358.534 196.272 357.382 196.784 356.806 197.744C356.854 194.688 357.702 193.568 359.35 193.568C360.502 193.568 361.062 194.096 361.286 195.04H362.966ZM359.35 197.808C360.886 197.808 361.59 198.8 361.59 200.192C361.59 201.568 360.758 202.48 359.414 202.48C357.862 202.48 357.014 201.52 357.014 200.08C357.014 198.528 358.15 197.808 359.35 197.808ZM365.279 198.016C365.279 201.408 366.175 203.968 369.439 203.968C372.703 203.968 373.599 201.408 373.599 198.016C373.599 194.688 372.703 192.128 369.439 192.128C366.175 192.128 365.279 194.688 365.279 198.016ZM371.807 198.016C371.807 200.304 371.567 202.304 369.439 202.304C367.311 202.304 367.071 200.304 367.071 198.016C367.071 195.84 367.311 193.792 369.439 193.792C371.567 193.792 371.807 195.84 371.807 198.016ZM378.889 205.392H379.929V204.08C382.089 203.888 383.273 202.384 383.273 200.832C383.273 198.576 381.529 198.144 379.929 197.76V194.304C380.697 194.496 381.145 195.088 381.209 195.728H383.161C383.017 193.92 381.769 192.912 379.929 192.752V191.456H378.889V192.768C376.905 192.944 375.529 194.176 375.529 195.968C375.529 198.224 377.289 198.672 378.889 199.072V202.592C377.993 202.432 377.545 201.84 377.481 201.04H375.529C375.529 202.848 376.937 203.92 378.889 204.096V205.392ZM381.433 200.928C381.433 201.76 380.889 202.432 379.929 202.592V199.344C380.793 199.616 381.433 200.016 381.433 200.928ZM377.385 195.872C377.385 194.896 378.009 194.368 378.889 194.256V197.488C378.025 197.216 377.385 196.8 377.385 195.872Z" fill="#4D6277"/>
<path d="M339.487 214.156C339.487 214.984 339.007 215.572 337.939 215.572H336.427V212.776H337.939C339.007 212.776 339.487 213.316 339.487 214.156ZM335.059 211.66V220H336.427V216.664H337.471L339.391 220H341.023L338.959 216.544C340.363 216.196 340.891 215.14 340.891 214.156C340.891 212.8 339.919 211.66 337.939 211.66H335.059ZM342.185 216.664C342.185 218.704 343.565 220.108 345.281 220.108C346.385 220.108 347.177 219.58 347.597 219.016V220H348.977V213.388H347.597V214.348C347.189 213.808 346.421 213.28 345.305 213.28C343.565 213.28 342.185 214.624 342.185 216.664ZM347.597 216.688C347.597 218.116 346.625 218.92 345.593 218.92C344.573 218.92 343.589 218.092 343.589 216.664C343.589 215.236 344.573 214.468 345.593 214.468C346.625 214.468 347.597 215.272 347.597 216.688ZM350.99 218.164C350.99 219.508 351.722 220 352.898 220H353.978V218.86H353.138C352.562 218.86 352.37 218.656 352.37 218.164V214.504H353.978V213.388H352.37V211.744H350.99V213.388H350.21V214.504H350.99V218.164ZM355.239 220H356.607V213.388H355.239V220ZM355.935 212.512C356.415 212.512 356.799 212.128 356.799 211.636C356.799 211.144 356.415 210.76 355.935 210.76C355.443 210.76 355.059 211.144 355.059 211.636C355.059 212.128 355.443 212.512 355.935 212.512ZM363.095 220H364.451V216.1C364.451 214.252 363.287 213.28 361.739 213.28C360.947 213.28 360.215 213.604 359.771 214.144V213.388H358.403V220H359.771V216.304C359.771 215.092 360.431 214.468 361.439 214.468C362.435 214.468 363.095 215.092 363.095 216.304V220ZM365.74 216.664C365.74 218.704 367.12 220.108 368.86 220.108C369.94 220.108 370.732 219.568 371.152 219.004V220.108C371.152 221.428 370.36 222.076 369.304 222.076C368.356 222.076 367.624 221.608 367.42 220.924H366.064C366.232 222.388 367.54 223.264 369.304 223.264C371.368 223.264 372.532 221.908 372.532 220.108V213.388H371.152V214.348C370.744 213.784 369.94 213.28 368.86 213.28C367.12 213.28 365.74 214.624 365.74 216.664ZM371.152 216.688C371.152 218.116 370.18 218.92 369.148 218.92C368.128 218.92 367.144 218.092 367.144 216.664C367.144 215.236 368.128 214.468 369.148 214.468C370.18 214.468 371.152 215.272 371.152 216.688ZM379.261 218.152C379.189 215.764 375.457 216.508 375.457 215.176C375.457 214.732 375.841 214.432 376.573 214.432C377.317 214.432 377.761 214.828 377.809 215.404H379.177C379.105 214.084 378.121 213.28 376.621 213.28C375.061 213.28 374.077 214.132 374.077 215.188C374.077 217.612 377.917 216.868 377.917 218.164C377.917 218.62 377.497 218.956 376.705 218.956C375.949 218.956 375.433 218.512 375.385 217.972H373.969C374.029 219.172 375.145 220.108 376.729 220.108C378.289 220.108 379.261 219.268 379.261 218.152Z" fill="#798A99"/>
<circle cx="394.999" cy="257" r="10" fill="#53BD95"/>
<circle cx="394.999" cy="257" r="5" fill="white"/>
<defs>
<filter id="filter0_d_1_728" x="-0.000854492" y="0" width="587" height="469" filterUnits="userSpaceOnUse" color-interpolation-filters="sRGB">
<feFlood flood-opacity="0" result="BackgroundImageFix"/>
<feColorMatrix in="SourceAlpha" type="matrix" values="0 0 0 0 0 0 0 0 0 0 0 0 0 0 0 0 0 0 127 0" result="hardAlpha"/>
<feOffset dy="8"/>
<feGaussianBlur stdDeviation="37.5"/>
<feComposite in2="hardAlpha" operator="out"/>
<feColorMatrix type="matrix" values="0 0 0 0 0.751042 0 0 0 0 0.867562 0 0 0 0 0.875 0 0 0 1 0"/>
<feBlend mode="normal" in2="BackgroundImageFix" result="effect1_dropShadow_1_728"/>
<feBlend mode="normal" in="SourceGraphic" in2="effect1_dropShadow_1_728" result="shape"/>
</filter>
<linearGradient id="paint0_linear_1_728" x1="324.499" y1="194.5" x2="324.499" y2="367" gradientUnits="userSpaceOnUse">
<stop offset="0.169767" stop-color="#E0F1FF"/>
<stop offset="0.912643" stop-color="#84B9E6" stop-opacity="0"/>
</linearGradient>
</defs>
</svg>
